<svg id="Layer_1" data-name="Layer 1" xmlns="http://www.w3.org/2000/svg" width="595.6793" height="238.2586" viewBox="0 0 595.6793 238.2586">
  <defs>
    <style>
      .cls-1 {
        fill: #fff;
      }

      .cls-2 {
        fill: #0d99ff;
      }

      .cls-3 {
        fill: #0f9;
      }

      .cls-4 {
        fill: #0cc5e8;
      }

      .cls-5 {
        fill: #00ffe2;
      }

      .cls-6 {
        fill: #0f6;
      }
    </style>
  </defs>
  <title>Augmentir-LogoType-Blue_V5</title>
  <g>
    <g>
      <g>
        <path class="cls-1" d="M170.5,176.5l-10.6-26.3h-37l-10.5,26.3h-9.3l36.5-90.4h4.3l36.3,90.4Zm-29-72.8h-.1L126,142.5h31Z" transform="translate(-16.1208 -10.0705)"/>
        <path class="cls-1" d="M219.1,171.8q-5.55,6-16.5,6a26.975,26.975,0,0,1-9.9-1.7,17.1717,17.1717,0,0,1-6.9-4.8,20.5928,20.5928,0,0,1-4.1-7.6,33.4486,33.4486,0,0,1-1.3-9.9V120.2h8.5v32.5a41.97,41.97,0,0,0,.6,7.2,17.3907,17.3907,0,0,0,2.1,5.8,10.606,10.606,0,0,0,4.3,3.8,17.7038,17.7038,0,0,0,13.8,0,10.7157,10.7157,0,0,0,4.1-3.8,15.8726,15.8726,0,0,0,2-5.8,53.0638,53.0638,0,0,0,.5-7.2V120.2h8.5v33.6C224.7,161.9,222.8,167.8,219.1,171.8Z" transform="translate(-16.1208 -10.0705)"/>
        <path class="cls-1" d="M284.8,187.9a26.2966,26.2966,0,0,1-6,10.2,24.1078,24.1078,0,0,1-9.1,6,32.6556,32.6556,0,0,1-11.5,1.9,36.0179,36.0179,0,0,1-10.5-1.5,27.156,27.156,0,0,1-8.8-4.5,24.7372,24.7372,0,0,1-6.2-7.4,25.7249,25.7249,0,0,1-2.8-10.3h8.6a16.25,16.25,0,0,0,2,6.9,16.9492,16.9492,0,0,0,4.4,5.2,19.2172,19.2172,0,0,0,6.2,3.2,24.7816,24.7816,0,0,0,7.3,1.1,21.96,21.96,0,0,0,9.8-1.9,15.5342,15.5342,0,0,0,6.2-5.4,23.2484,23.2484,0,0,0,3.3-8.5,61.836,61.836,0,0,0,1-11.1v-5.1h-.2a19.839,19.839,0,0,1-3.5,4.7,21.4566,21.4566,0,0,1-5,3.5,23.9233,23.9233,0,0,1-5.8,2.2,25.39,25.39,0,0,1-6.1.7,27.3485,27.3485,0,0,1-11.2-2.3,26.0434,26.0434,0,0,1-8.7-6.2,30.7148,30.7148,0,0,1-5.7-9.4,34.79,34.79,0,0,1-2-11.8,32.5027,32.5027,0,0,1,2-11.4,28.1876,28.1876,0,0,1,5.6-9.3,26.0459,26.0459,0,0,1,8.7-6.2,27.4827,27.4827,0,0,1,11.3-2.3,24.8253,24.8253,0,0,1,6.1.7,27.7522,27.7522,0,0,1,5.7,2.1,23.3882,23.3882,0,0,1,4.9,3.3,20.6216,20.6216,0,0,1,3.8,4.5h.2v-9.4h8.5V173C287,178.9,286.3,183.8,284.8,187.9Zm-5.9-40.2a25.5188,25.5188,0,0,0-1.4-8.4,21.782,21.782,0,0,0-4.1-6.9,20.04,20.04,0,0,0-6.4-4.7,21.6029,21.6029,0,0,0-16.8,0,17.3893,17.3893,0,0,0-6.3,4.7,20.9847,20.9847,0,0,0-4,7,27.3512,27.3512,0,0,0-1.4,8.7,26.4294,26.4294,0,0,0,1.4,8.4,23.2508,23.2508,0,0,0,4.1,7.2,18.8871,18.8871,0,0,0,6.5,5,18.3179,18.3179,0,0,0,8.5,1.9,17.7609,17.7609,0,0,0,8.5-1.9,18.4314,18.4314,0,0,0,6.3-5.1,22.74,22.74,0,0,0,3.9-7.4A32.9113,32.9113,0,0,0,278.9,147.7Z" transform="translate(-16.1208 -10.0705)"/>
        <path class="cls-1" d="M362.2,176.5V141.3c0-5.4-.9-9.4-2.8-11.7-1.9-2.4-4.9-3.6-8.9-3.6-4.4,0-7.6,1.5-9.7,4.6s-3.1,7.6-3.1,13.4v32.6h-8.5V143.2a42.9848,42.9848,0,0,0-.6-7.7,14.8605,14.8605,0,0,0-2-5.4,8.8249,8.8249,0,0,0-3.7-3.2,13.3616,13.3616,0,0,0-5.6-1,10.3648,10.3648,0,0,0-9.3,5c-2.1,3.3-3.2,8.4-3.2,15.2v30.5h-8.5V120.3h8.5v7.1h.2a15.6021,15.6021,0,0,1,5.9-6.3,18.05,18.05,0,0,1,8.9-2.2,18.4918,18.4918,0,0,1,9.5,2.5,17.651,17.651,0,0,1,6.9,7.8,18.0307,18.0307,0,0,1,6.7-7.7,18.7037,18.7037,0,0,1,10.2-2.7c6,0,10.5,1.8,13.4,5.4s4.4,8.6,4.4,15.2v37h-8.7Z" transform="translate(-16.1208 -10.0705)"/>
        <path class="cls-1" d="M384,149.7a25.186,25.186,0,0,0,1.8,8.9,19.7591,19.7591,0,0,0,4.5,6.7,20.916,20.916,0,0,0,6.6,4.3,21.4641,21.4641,0,0,0,8,1.5,18.8616,18.8616,0,0,0,10.9-3.1,24.9572,24.9572,0,0,0,7.7-8.4l7.1,1.9a27.9876,27.9876,0,0,1-4.5,7,27.1325,27.1325,0,0,1-6.1,5.1,32.4738,32.4738,0,0,1-7.4,3.2,28.8954,28.8954,0,0,1-8.4,1.1,29.4215,29.4215,0,0,1-11.7-2.3,25.8874,25.8874,0,0,1-8.9-6.2,26.3634,26.3634,0,0,1-5.7-9.4,34.0565,34.0565,0,0,1-2-11.6,33.4834,33.4834,0,0,1,2-11.5,30.7187,30.7187,0,0,1,5.7-9.4,25.7417,25.7417,0,0,1,8.9-6.3,28.3071,28.3071,0,0,1,11.4-2.3,29.225,29.225,0,0,1,11.8,2.2,25.353,25.353,0,0,1,8.8,6.3,26.2246,26.2246,0,0,1,5.4,9.7,41.0284,41.0284,0,0,1,1.8,12.5H384Zm37.2-13.2a20.5088,20.5088,0,0,0-3.7-5.8,17.2609,17.2609,0,0,0-5.7-3.8,21.4165,21.4165,0,0,0-7.9-1.4,20.422,20.422,0,0,0-7.5,1.4,18.2863,18.2863,0,0,0-10.1,9.6,24.16,24.16,0,0,0-2,7.1h39A39.0662,39.0662,0,0,0,421.2,136.5Z" transform="translate(-16.1208 -10.0705)"/>
        <path class="cls-1" d="M473.2,176.5V142.1a33.7135,33.7135,0,0,0-.6-6.6,12.9824,12.9824,0,0,0-2-5.1,9.4251,9.4251,0,0,0-3.8-3.3,13.9751,13.9751,0,0,0-6.2-1.2,13.1573,13.1573,0,0,0-6.4,1.5,13.7743,13.7743,0,0,0-4.7,4.3,20.85,20.85,0,0,0-2.9,6.4,29.2293,29.2293,0,0,0-1,8v30.3h-8.5V120.1h8.5v8h.2a17.85,17.85,0,0,1,7-6.9,21.33,21.33,0,0,1,10.4-2.5c5.9,0,10.5,1.8,13.7,5.4s4.8,8.9,4.8,15.9v36.3h-8.5Z" transform="translate(-16.1208 -10.0705)"/>
        <path class="cls-1" d="M502.7,127.8v48.7h-8.5V127.8h-6.3v-7.6h6.3V100.8h8.5v19.4h10.1v7.6Z" transform="translate(-16.1208 -10.0705)"/>
        <path class="cls-1" d="M527.6,101.3a5.3742,5.3742,0,0,1-.5,2.1,6.1239,6.1239,0,0,1-2.9,2.9,4.9185,4.9185,0,0,1-2.1.4,5.3812,5.3812,0,0,1-2.2-.4,5.6757,5.6757,0,0,1-1.8-1.2,6.57,6.57,0,0,1-1.2-1.7,4.6381,4.6381,0,0,1-.4-2.1,4.9179,4.9179,0,0,1,1.6-3.8A5.6061,5.6061,0,0,1,522,96a5.2224,5.2224,0,0,1,2.1.4,4.9916,4.9916,0,0,1,1.7,1.1,6.5672,6.5672,0,0,1,1.2,1.7A3.697,3.697,0,0,1,527.6,101.3Zm-9.8,75.2V120.2h8.5v56.3Z" transform="translate(-16.1208 -10.0705)"/>
        <path class="cls-1" d="M560.2,127.4a17.3292,17.3292,0,0,0-3.2-.3c-3.6,0-6.3,1.7-8.2,5.1s-2.9,8.7-2.9,16v28.4h-8.5V120.3h8.5V128h.2a13.5229,13.5229,0,0,1,13.3-8.9,12.6518,12.6518,0,0,1,2.8.3,14.2586,14.2586,0,0,1,2.7.9l-1.9,8.2A7.8158,7.8158,0,0,0,560.2,127.4Z" transform="translate(-16.1208 -10.0705)"/>
      </g>
      <g>
        <path class="cls-1" d="M583.4,104.4V123h-2.1V104.3h-5.1v-1.9h12.3v1.9h-5.1Z" transform="translate(-16.1208 -10.0705)"/>
        <path class="cls-1" d="M609.8,123l-3-15.9h-.1L600,123.6h-.5l-6.6-16.5h-.1L589.7,123h-2.1l4.2-21.1h1.1l6.8,17.1,6.9-17.1h1.1l4.1,21.1Z" transform="translate(-16.1208 -10.0705)"/>
      </g>
    </g>
    <g>
      <g>
        <path class="cls-2" d="M203.1,186.2a74.39,74.39,0,0,1-9.2,10.2l12.2,13.4a120.1565,120.1565,0,0,0,6.2-16.5Z" transform="translate(-16.1208 -10.0705)"/>
        <path class="cls-3" d="M62.7,226.9l26.1-29.3h0a78.7111,78.7111,0,0,1-26.3-65.4,80.43,80.43,0,0,1,7.2-27.3L25.5,84.1C4.7,134.7,19.1,193.5,62.7,226.9Z" transform="translate(-16.1208 -10.0705)"/>
        <path class="cls-4" d="M188,201.4a76.5766,76.5766,0,0,1-31.9,14.4l5.3,27.7c19.5-5.4,32.1-15.6,39.4-24.9Z" transform="translate(-16.1208 -10.0705)"/>
        <path class="cls-5" d="M148.4,216.9a81.7481,81.7481,0,0,1-14,.1A77.8825,77.8825,0,0,1,95,202.5h0L72.6,233.4c26.5,16.5,62.5,16.8,78.5,12.8Z" transform="translate(-16.1208 -10.0705)"/>
      </g>
      <path class="cls-6" d="M73.3,97.8a78.2659,78.2659,0,0,1,136.4,2.9l42.9-23.8A127.2676,127.2676,0,0,0,31.1,72.5Z" transform="translate(-16.1208 -10.0705)"/>
    </g>
  </g>
</svg>
